<?xml version="1.0" encoding="utf-8"?>
<!-- Generator: Adobe Illustrator 21.1.0, SVG Export Plug-In . SVG Version: 6.00 Build 0)  -->
<svg version="1.1" id="Layer_1" xmlns="http://www.w3.org/2000/svg" xmlns:xlink="http://www.w3.org/1999/xlink" x="0px" y="0px"
	 viewBox="0 0 70 42.2" style="enable-background:new 0 0 70 42.2;" xml:space="preserve">
<style type="text/css">
	.st0{display:none;}
	.st1{display:inline;}
	.st2{stroke:#000000;stroke-width:0.1;stroke-miterlimit:10;}
	.st3{fill:none;stroke:#000000;stroke-width:0.1;stroke-miterlimit:10;}
	.st4{fill:#FFFFFF;}
</style>
<g class="st0">
	<g class="st1">
		<rect y="0" class="st2" width="200" height="200"/>
		<line class="st3" x1="0" y1="193.7" x2="200" y2="193.7"/>
		<line class="st3" x1="0" y1="187.5" x2="200" y2="187.5"/>
		<line class="st3" x1="0" y1="181.2" x2="200" y2="181.2"/>
		<line class="st3" x1="0" y1="175" x2="200" y2="175"/>
		<line class="st3" x1="0" y1="168.7" x2="200" y2="168.7"/>
		<line class="st3" x1="0" y1="162.5" x2="200" y2="162.5"/>
		<line class="st3" x1="0" y1="156.2" x2="200" y2="156.2"/>
		<line class="st3" x1="0" y1="150" x2="200" y2="150"/>
		<line class="st3" x1="0" y1="143.7" x2="200" y2="143.7"/>
		<line class="st3" x1="0" y1="137.5" x2="200" y2="137.5"/>
		<line class="st3" x1="0" y1="131.2" x2="200" y2="131.2"/>
		<line class="st3" x1="0" y1="125" x2="200" y2="125"/>
		<line class="st3" x1="0" y1="118.7" x2="200" y2="118.7"/>
		<line class="st3" x1="0" y1="112.5" x2="200" y2="112.5"/>
		<line class="st3" x1="0" y1="106.2" x2="200" y2="106.2"/>
		<line class="st3" x1="0" y1="100" x2="200" y2="100"/>
		<line class="st3" x1="0" y1="93.7" x2="200" y2="93.7"/>
		<line class="st3" x1="0" y1="87.5" x2="200" y2="87.5"/>
		<line class="st3" x1="0" y1="81.2" x2="200" y2="81.2"/>
		<line class="st3" x1="0" y1="75" x2="200" y2="75"/>
		<line class="st3" x1="0" y1="68.7" x2="200" y2="68.7"/>
		<line class="st3" x1="0" y1="62.5" x2="200" y2="62.5"/>
		<line class="st3" x1="0" y1="56.2" x2="200" y2="56.2"/>
		<line class="st3" x1="0" y1="50" x2="200" y2="50"/>
		<line class="st3" x1="0" y1="43.7" x2="200" y2="43.7"/>
		<line class="st3" x1="0" y1="37.5" x2="200" y2="37.5"/>
		<line class="st3" x1="0" y1="31.2" x2="200" y2="31.2"/>
		<line class="st3" x1="0" y1="25" x2="200" y2="25"/>
		<line class="st3" x1="0" y1="18.7" x2="200" y2="18.7"/>
		<line class="st3" x1="0" y1="12.5" x2="200" y2="12.5"/>
		<line class="st3" x1="0" y1="6.2" x2="200" y2="6.2"/>
		<line class="st3" x1="193.8" y1="0" x2="193.8" y2="200"/>
		<line class="st3" x1="187.5" y1="0" x2="187.5" y2="200"/>
		<line class="st3" x1="181.3" y1="0" x2="181.3" y2="200"/>
		<line class="st3" x1="175" y1="0" x2="175" y2="200"/>
		<line class="st3" x1="168.8" y1="0" x2="168.8" y2="200"/>
		<line class="st3" x1="162.5" y1="0" x2="162.5" y2="200"/>
		<line class="st3" x1="156.3" y1="0" x2="156.3" y2="200"/>
		<line class="st3" x1="150" y1="0" x2="150" y2="200"/>
		<line class="st3" x1="143.8" y1="0" x2="143.8" y2="200"/>
		<line class="st3" x1="137.5" y1="0" x2="137.5" y2="200"/>
		<line class="st3" x1="131.3" y1="0" x2="131.3" y2="200"/>
		<line class="st3" x1="125" y1="0" x2="125" y2="200"/>
		<line class="st3" x1="118.8" y1="0" x2="118.8" y2="200"/>
		<line class="st3" x1="112.5" y1="0" x2="112.5" y2="200"/>
		<line class="st3" x1="106.3" y1="0" x2="106.3" y2="200"/>
		<line class="st3" x1="100" y1="0" x2="100" y2="200"/>
		<line class="st3" x1="93.8" y1="0" x2="93.8" y2="200"/>
		<line class="st3" x1="87.5" y1="0" x2="87.5" y2="200"/>
		<line class="st3" x1="81.3" y1="0" x2="81.3" y2="200"/>
		<line class="st3" x1="75" y1="0" x2="75" y2="200"/>
		<line class="st3" x1="68.8" y1="0" x2="68.8" y2="200"/>
		<line class="st3" x1="62.5" y1="0" x2="62.5" y2="200"/>
		<line class="st3" x1="56.3" y1="0" x2="56.3" y2="200"/>
		<line class="st3" x1="50" y1="0" x2="50" y2="200"/>
		<line class="st3" x1="43.8" y1="0" x2="43.8" y2="200"/>
		<line class="st3" x1="37.5" y1="0" x2="37.5" y2="200"/>
		<line class="st3" x1="31.3" y1="0" x2="31.3" y2="200"/>
		<line class="st3" x1="25" y1="0" x2="25" y2="200"/>
		<line class="st3" x1="18.8" y1="0" x2="18.8" y2="200"/>
		<line class="st3" x1="12.5" y1="0" x2="12.5" y2="200"/>
		<line class="st3" x1="6.3" y1="0" x2="6.3" y2="200"/>
	</g>
</g>
<g>
	<g>
		<g>
			<path class="st4" d="M5.5,24.9l49.2,0l-9.3,9.3c-1.5,1.5-1.5,4,0,5.5l0,0c1.5,1.5,4,1.5,5.5,0l16-16c1.5-1.5,1.5-4,0-5.5l-16-16
				c-1.5-1.5-4-1.5-5.5,0l0,0c-1.5,1.5-1.5,4,0,5.5l9.3,9.3l-49.2,0c-2.1,0-3.9,1.8-3.9,3.9l0,0C1.6,23.1,3.4,24.9,5.5,24.9z"/>
		</g>
	</g>
</g>
</svg>
