<svg xmlns="http://www.w3.org/2000/svg" width="14.43" height="16" viewBox="0 0 14.43 16">
  <path id="cake" d="M8.48,4.869c1.564,0,2.077-1.107,1.474-2.279-.7-1.357,1.519-2.529.418-2.529A4.134,4.134,0,0,0,7.013,2.612,1.658,1.658,0,0,0,8.48,4.869Zm4.178,7.174-.356-.307a1.086,1.086,0,0,0-1.391,0l-.354.306a2.685,2.685,0,0,1-3.484,0l-.356-.308a1.084,1.084,0,0,0-1.39,0l-.356.307a2.678,2.678,0,0,1-3.369.08v3.136a.8.8,0,0,0,.8.8H15.229a.8.8,0,0,0,.8-.8V12.124a2.682,2.682,0,0,1-3.371-.081Zm-3.844-6.4C2.743,5.641,1.6,8.335,1.6,9.648v.376l.933.8a1.086,1.086,0,0,0,1.391,0l.356-.307a2.687,2.687,0,0,1,3.483,0l.356.308a1.086,1.086,0,0,0,1.391,0l.354-.306a2.687,2.687,0,0,1,3.484,0l.356.307a1.086,1.086,0,0,0,1.391,0l.935-.8V9.648c0-1.313-1.143-4.008-7.214-4.008Z" transform="translate(-1.6 -0.061)"/>
</svg>
