<svg xmlns="http://www.w3.org/2000/svg" width="14.345" height="16" viewBox="0 0 14.345 16"><path d="M16.241,18H4.1A1.1,1.1,0,0,1,3,16.9V4.759a1.1,1.1,0,0,1,1.1-1.1h1.1v.552a1.655,1.655,0,0,0,3.31,0V3.655h3.31v.552a1.655,1.655,0,1,0,3.31,0V3.655h1.1a1.1,1.1,0,0,1,1.1,1.1V16.9A1.1,1.1,0,0,1,16.241,18Zm0-10.483H4.1V16.9H16.241ZM6.862,10.276H5.207V8.621H6.862Zm0,2.759H5.207V11.379H6.862Zm0,2.759H5.207V14.138H6.862Zm2.759-5.517H7.966V8.621H9.621Zm0,2.759H7.966V11.379H9.621Zm0,2.759H7.966V14.138H9.621Zm2.759-5.517H10.724V8.621h1.655Zm0,2.759H10.724V11.379h1.655Zm0,2.759H10.724V14.138h1.655Zm2.759-5.517H13.483V8.621h1.655Zm0,2.759H13.483V11.379h1.655Zm0,2.759H13.483V14.138h1.655ZM13.466,5.31a1.086,1.086,0,0,1-1.086-1.086V3.086a1.086,1.086,0,1,1,2.173,0V4.224A1.086,1.086,0,0,1,13.466,5.31Zm-6.621,0A1.086,1.086,0,0,1,5.759,4.224V3.086a1.086,1.086,0,0,1,2.173,0V4.224A1.087,1.087,0,0,1,6.845,5.31Z" transform="translate(-3 -2)" fill="#fff"/></svg>